<svg width="197" height="180" viewBox="0 0 197 180" fill="none" xmlns="http://www.w3.org/2000/svg">
<g clip-path="url(#clip0_15_52)">
<path d="M0 5.83541H6.26006V38.2544H12.2479V5.83541H18.508V0.432251H0V5.83541Z" fill="#EA3F7E"/>
<path fill-rule="evenodd" clip-rule="evenodd" d="M60.4967 29.1771C60.4967 35.2286 63.7084 38.6866 69.5874 38.6866C75.4664 38.6866 78.6781 35.2286 78.6781 29.1771V9.50956C78.6781 3.45802 75.4664 0 69.5874 0C63.7084 0 60.4967 3.45802 60.4967 9.50956V29.1771ZM66.4846 9.13134C66.4846 6.42976 67.6822 5.40316 69.5874 5.40316C71.4926 5.40316 72.6902 6.42976 72.6902 9.13134V29.5553C72.6902 32.2569 71.4926 33.2835 69.5874 33.2835C67.6822 33.2835 66.4846 32.2569 66.4846 29.5553V9.13134Z" fill="#EA3F7E"/>
<path fill-rule="evenodd" clip-rule="evenodd" d="M1.63306 108.911H11.1048C17.0927 108.911 20.0322 105.615 20.0322 99.5636V80.4364C20.0322 74.3849 17.0927 71.089 11.1048 71.089H1.63306V108.911ZM10.9959 76.4921C12.9012 76.4921 14.0443 77.4647 14.0443 80.1663V99.8338C14.0443 102.535 12.9012 103.508 10.9959 103.508H7.62094V76.4921H10.9959Z" fill="#EA3F7E"/>
<path fill-rule="evenodd" clip-rule="evenodd" d="M63.1015 99.8338C63.1015 105.885 66.3132 109.343 72.1922 109.343C78.0712 109.343 81.2829 105.885 81.2829 99.8338V80.1663C81.2829 74.1147 78.0712 70.6567 72.1922 70.6567C66.3132 70.6567 63.1015 74.1147 63.1015 80.1663V99.8338ZM69.0894 79.788C69.0894 77.0865 70.287 76.0599 72.1922 76.0599C74.0974 76.0599 75.295 77.0865 75.295 79.788V100.212C75.295 102.914 74.0974 103.94 72.1922 103.94C70.287 103.94 69.0894 102.914 69.0894 100.212V79.788Z" fill="#EA3F7E"/>
<path d="M17.4737 179.568H1.63306V141.746H7.62094V174.165H17.4737V179.568Z" fill="#EA3F7E"/>
<path d="M65.9113 179.568H59.9234V141.746H65.9113V179.568Z" fill="#EA3F7E"/>
<path d="M115.835 162.635C112.69 159.779 109.265 156.669 109.265 150.823C109.265 144.771 112.259 141.313 118.084 141.313C123.908 141.313 126.902 144.771 126.902 150.823V152.282H121.241V150.445C121.241 147.743 120.152 146.717 118.247 146.717C116.342 146.717 115.253 147.743 115.253 150.445C115.253 154.016 117.719 156.256 120.387 158.679C123.532 161.534 126.957 164.645 126.957 170.49C126.957 176.542 123.908 180 118.029 180C112.15 180 109.102 176.542 109.102 170.49V167.897H114.763V170.869C114.763 173.57 115.961 174.543 117.866 174.543C119.771 174.543 120.969 173.57 120.969 170.869C120.969 167.297 118.503 165.058 115.835 162.635Z" fill="#EA3F7E"/>
<path d="M174.752 147.149H168.492V141.746H187V147.149H180.74V179.568H174.752V147.149Z" fill="#EA3F7E"/>
<g clip-path="url(#clip1_15_52)">
<path d="M142.528 110C158.829 110 172.044 108.701 172.044 107.099C172.044 105.497 158.829 104.198 142.528 104.198C126.227 104.198 113.012 105.497 113.012 107.099C113.012 108.701 126.227 110 142.528 110Z" fill="#EFEFEF"/>
<path d="M138.878 60.6373C138.878 60.6373 158.868 44.6483 178.935 42.551L185.056 18.2659C185.738 15.5634 184.103 12.869 181.401 12.1879L133.672 0.157518C130.97 -0.523647 128.214 1.06411 127.533 3.76665L115.917 49.8483L128.084 41.7236L138.878 60.6373ZM148.584 10.3772L148.589 10.3585C148.813 9.46687 149.725 8.92151 150.616 9.1463L162.086 12.0374C162.978 12.2622 163.52 13.1737 163.295 14.0654L163.29 14.084C163.065 14.9757 162.164 15.4928 161.272 15.268L149.802 12.3769C148.91 12.1521 148.359 11.2688 148.584 10.3772Z" fill="#10B981"/>
<path d="M136.756 75.2632L115.917 49.8483L106.153 88.5854C105.472 91.2876 107.124 94.0795 109.827 94.7606L157.556 106.791C160.258 107.472 162.996 105.787 163.677 103.084L176.087 53.8494C176.087 53.8494 185.613 46.1585 196.775 46.5364C167.77 37.9803 136.756 75.2632 136.756 75.2632ZM141.578 91.9359C140.847 94.8388 137.9 96.599 134.997 95.8674C132.094 95.1355 130.334 92.1891 131.066 89.286C131.797 86.3831 134.744 84.6228 137.647 85.3547C140.55 86.0863 142.31 89.0329 141.578 91.9359Z" fill="#EA3F7E"/>
</g>
</g>
<defs>
<clipPath id="clip0_15_52">
<rect width="196.775" height="180" fill="white"/>
</clipPath>
<clipPath id="clip1_15_52">
<rect width="90.7746" height="110" fill="white" transform="translate(106)"/>
</clipPath>
</defs>
</svg>
